<svg width="16.000000" height="16.000000" viewBox="0 0 16 16" fill="none" xmlns="http://www.w3.org/2000/svg" xmlns:xlink="http://www.w3.org/1999/xlink">
	<desc>
			Created with Pixso.
	</desc>
	<defs/>
	<path d="M10.6665 4C10.6665 5.47266 9.47266 6.6665 8 6.6665C6.52734 6.6665 5.3335 5.47266 5.3335 4C5.3335 2.52734 6.52734 1.3335 8 1.3335C9.47266 1.3335 10.6665 2.52734 10.6665 4ZM12 4C12 6.20898 10.209 8 8 8C5.79102 8 4 6.20898 4 4C4 1.79102 5.79102 0 8 0C10.209 0 12 1.79102 12 4ZM3.19678 12.3101C4.43604 11.2773 6.16113 10.6665 8 10.6665C9.83887 10.6665 11.564 11.2773 12.8032 12.3101C14.0352 13.3369 14.6665 14.6719 14.6665 16L16 16C16 14.2319 15.1572 12.5361 13.6567 11.2861C12.1567 10.0356 10.1216 9.3335 8 9.3335C5.87842 9.3335 3.84326 10.0356 2.34326 11.2861C0.842773 12.5361 0 14.2319 0 16L1.3335 16C1.3335 14.6719 1.96484 13.3369 3.19678 12.3101Z" fill="#333333" fill-opacity="1.000000" fill-rule="evenodd"/>
</svg>
