<svg viewBox="0 0 82 36" fill="none" xmlns="http://www.w3.org/2000/svg"><path d="M76.94 17.24h4.2v6.96q-1.44 1.03-3.32 1.58-1.87.55-3.74.55-2.64 0-4.75-1.1-2.11-1.13-3.31-3.12-1.2-2-1.2-4.51 0-2.52 1.2-4.51 1.2-2 3.33-3.11 2.14-1.12 4.83-1.12 2.35 0 4.22.8 1.87.79 3.12 2.28l-3.02 2.73q-1.7-1.87-4.08-1.87-2.16 0-3.49 1.31-1.32 1.3-1.32 3.49 0 1.4.6 2.49.6 1.09 1.68 1.7 1.09.61 2.48.61 1.37 0 2.57-.55v-4.61Z" fill="#333" fill-rule="evenodd"/><path d="M58 18c0 2.87-.6 5.59-1.66 8h-13.34c2.46-3.77 5-8.34 5-13a13 13 0 0 0-9.58-12.55c1.15-.3 2.35-.45 3.58-.45 8.84 0 16 8.06 16 18Zm-14-5a9 9 0 0 0-9-9c-6.65 0-9 8.5-9 14 0 9.94 7.16 18 16 18 4.74 0 9-2.32 11.93-6h-18.93l1.1-1.39c3.52-4.4 7.9-9.91 7.9-15.61Z" fill="#7859CF" fill-rule="evenodd"/><path d="M1.86 9.2h7.94q2.76 0 4.9 1.03 2.13 1.03 3.3 2.93 1.18 1.9 1.18 4.44 0 2.55-1.17 4.44-1.18 1.9-3.31 2.93-2.14 1.03-4.9 1.03h-7.94v-16.8Zm7.75 13q2.16 0 3.46-1.22 1.31-1.22 1.31-3.38t-1.3-3.38q-1.31-1.23-3.47-1.23h-3v9.22h3Z" fill="#333" fill-rule="evenodd"/></svg>