<svg viewBox="0 0 170 36" fill="none" xmlns="http://www.w3.org/2000/svg"><path d="M142.94 17.24h4.2v6.96q-1.44 1.03-3.32 1.58-1.87.55-3.74.55-2.64 0-4.75-1.1-2.11-1.13-3.31-3.12-1.2-2-1.2-4.51 0-2.52 1.2-4.51 1.2-2 3.33-3.11 2.14-1.12 4.83-1.12 2.35 0 4.22.8 1.87.79 3.12 2.28l-3.02 2.73q-1.7-1.87-4.08-1.87-2.16 0-3.49 1.31-1.32 1.3-1.32 3.49 0 1.4.6 2.49.6 1.09 1.68 1.7 1.09.61 2.48.61 1.37 0 2.57-.55v-4.61Zm16.17 9.1q-2.66 0-4.79-1.13-2.12-1.13-3.33-3.12-1.22-2-1.22-4.5 0-2.49 1.22-4.48 1.21-2 3.33-3.12 2.13-1.13 4.8-1.13 2.65 0 4.78 1.13 2.12 1.13 3.34 3.12 1.2 2 1.2 4.49 0 2.5-1.2 4.49-1.22 1.99-3.34 3.12-2.13 1.12-4.79 1.12Zm0-3.94q1.28 0 2.3-.6 1.04-.6 1.64-1.69.6-1.1.6-2.51 0-1.41-.6-2.5-.6-1.1-1.63-1.7-1.03-.6-2.3-.6-1.28 0-2.31.6-1.04.6-1.64 1.7-.6 1.09-.6 2.5 0 1.42.6 2.51.6 1.1 1.64 1.7 1.03.6 2.3.6Z" fill="#333" fill-rule="evenodd"/><path d="M124 18c0 2.87-.6 5.59-1.66 8h-13.34c2.46-3.77 5-8.34 5-13a13 13 0 0 0-9.58-12.55c1.15-.3 2.35-.45 3.58-.45 8.84 0 16 8.06 16 18Zm-14-5a9 9 0 0 0-9-9c-6.65 0-9 8.5-9 14 0 9.94 7.16 18 16 18 4.74 0 9-2.32 11.93-6h-18.93l1.1-1.39c3.52-4.4 7.9-9.91 7.9-15.61Z" fill="#7859CF" fill-rule="evenodd"/><path d="M2.65 9.2h7.94q2.76 0 4.9 1.03 2.14 1.03 3.3 2.93 1.19 1.9 1.19 4.44 0 2.55-1.18 4.44-1.17 1.9-3.31 2.93-2.14 1.03-4.9 1.03h-7.94v-16.8Zm7.75 13q2.16 0 3.46-1.22 1.32-1.22 1.32-3.38t-1.32-3.38q-1.3-1.23-3.46-1.23h-3v9.22h3Zm19.9-.66h-2.6v4.46h-4.75v-16.8h7.68q2.28 0 3.96.76 1.68.75 2.59 2.16.91 1.4.91 3.3 0 1.82-.85 3.18-.85 1.35-2.43 2.12l3.62 5.28h-5.09l-3.04-4.46Zm3-6.12q0-1.18-.75-1.82-.74-.65-2.2-.65h-2.64v4.91h2.63q1.47 0 2.21-.63.75-.64.75-1.81Zm7.9-6.22h4.75v16.8h-4.76v-16.8Zm24.6 0v16.8h-3.92l-7.42-8.95v8.95h-4.65v-16.8h3.9l7.43 8.95v-8.95h4.65Zm10.31 10.7-1.77 1.9v4.2h-4.7v-16.8h4.7v6.99l6.5-6.99h5.23l-6.86 7.44 7.22 9.36h-5.52l-4.8-6.1Z" fill="#333" fill-rule="evenodd"/></svg>