<svg width="32.000000" height="36.000000" viewBox="0 0 32 36" fill="none" xmlns="http://www.w3.org/2000/svg" xmlns:xlink="http://www.w3.org/1999/xlink">
	<desc>
			Created with Pixso.
	</desc>
	<defs/>
	<path d="M32 18C32 20.8738 31.4014 23.5901 30.3369 26L17 26C19.4629 22.228 22 17.6606 22 13C22 7.00244 17.9385 1.95337 12.416 0.453369C13.5679 0.156738 14.7676 0 16 0C24.8364 0 32 8.05884 32 18ZM18 13C18 8.02954 13.9707 4 9 4C2.34912 4 0 12.5071 0 18C0 27.9412 7.16357 36 16 36C20.7388 36 24.9961 33.6826 27.9258 30L9 30C9.35205 29.5515 9.72021 29.0891 10.0986 28.6143C13.6157 24.2012 18 18.6997 18 13Z" fill="#7859CF" fill-opacity="1.000000" fill-rule="evenodd"/>
</svg>
