<svg width="82.000000" height="36.000000" viewBox="0 0 82 36" fill="none" xmlns="http://www.w3.org/2000/svg" xmlns:xlink="http://www.w3.org/1999/xlink">
	<desc>
			Created with Pixso.
	</desc>
	<defs/>
	<path d="M76.9375 17.2402L81.1387 17.2402L81.1387 24.2012Q79.6973 25.2324 77.8223 25.7832Q75.9531 26.334 74.0781 26.334Q71.4414 26.334 69.3262 25.2207Q67.2168 24.1016 66.0156 22.1094Q64.8145 20.1172 64.8145 17.5977Q64.8145 15.0781 66.0156 13.0859Q67.2168 11.0938 69.3496 9.98047Q71.4883 8.86133 74.1777 8.86133Q76.5273 8.86133 78.3965 9.6582Q80.2715 10.4492 81.5195 11.9375L78.4961 14.6738Q76.791 12.7988 74.418 12.7988Q72.2559 12.7988 70.9316 14.1113Q69.6133 15.418 69.6133 17.5977Q69.6133 18.9922 70.2109 20.0879Q70.8145 21.1777 71.8926 21.793Q72.9766 22.4023 74.3652 22.4023Q75.7363 22.4023 76.9375 21.8457L76.9375 17.2402Z" fill="#333333" fill-opacity="1.000000" fill-rule="evenodd"/>
	<path d="M58 18C58 20.8738 57.4014 23.5901 56.3369 26L43 26C45.4629 22.228 48 17.6606 48 13C48 7.00244 43.9385 1.95337 38.416 0.453369C39.5679 0.156738 40.7676 0 42 0C50.8364 0 58 8.05884 58 18ZM44 13C44 8.02954 39.9707 4 35 4C28.3491 4 26 12.5071 26 18C26 27.9412 33.1636 36 42 36C46.7388 36 50.9961 33.6826 53.9258 30L35 30C35.3521 29.5515 35.7202 29.0891 36.0986 28.6143C39.6157 24.2012 44 18.6997 44 13Z" fill="#7859CF" fill-opacity="1.000000" fill-rule="evenodd"/>
	<path d="M1.85764 9.20117L9.79709 9.20117Q12.5627 9.20117 14.6955 10.2324Q16.8342 11.2637 18.0061 13.1621Q19.1838 15.0547 19.1838 17.5977Q19.1838 20.1465 18.0061 22.0449Q16.8342 23.9375 14.6955 24.9688Q12.5627 26 9.79709 26L1.85764 26L1.85764 9.20117ZM9.60959 22.209Q11.7658 22.209 13.0725 20.9844Q14.385 19.7598 14.385 17.5977Q14.385 15.4414 13.0725 14.2168Q11.7658 12.9922 9.60959 12.9922L6.60959 12.9922L6.60959 22.209L9.60959 22.209Z" fill="#333333" fill-opacity="1.000000" fill-rule="evenodd"/>
</svg>
